<mxfile host="Electron" agent="Mozilla/5.0 (Windows NT 10.0; Win64; x64) AppleWebKit/537.36 (KHTML, like Gecko) draw.io/25.0.2 Chrome/128.0.6613.186 Electron/32.2.5 Safari/537.36" version="25.0.2">
  <diagram name="Page-1" id="1uPLE7Y0vS3bkm3TB3ee">
    <mxGraphModel dx="802" dy="943" grid="1" gridSize="10" guides="1" tooltips="1" connect="1" arrows="1" fold="1" page="1" pageScale="1" pageWidth="850" pageHeight="1100" math="0" shadow="0">
      <root>
        <mxCell id="0" />
        <mxCell id="1" parent="0" />
        <mxCell id="kWh5ohczA3Y1a8C0f1TA-1" value="Document" style="swimlane;fontStyle=1;align=center;verticalAlign=top;childLayout=stackLayout;horizontal=1;startSize=26;horizontalStack=0;resizeParent=1;resizeParentMax=0;resizeLast=0;collapsible=1;marginBottom=0;whiteSpace=wrap;html=1;" vertex="1" parent="1">
          <mxGeometry x="540" y="280" width="160" height="130" as="geometry" />
        </mxCell>
        <mxCell id="kWh5ohczA3Y1a8C0f1TA-2" value="+documentID:String&lt;div&gt;+title:String&lt;/div&gt;&lt;div&gt;+content:File&lt;/div&gt;" style="text;strokeColor=none;fillColor=none;align=left;verticalAlign=top;spacingLeft=4;spacingRight=4;overflow=hidden;rotatable=0;points=[[0,0.5],[1,0.5]];portConstraint=eastwest;whiteSpace=wrap;html=1;" vertex="1" parent="kWh5ohczA3Y1a8C0f1TA-1">
          <mxGeometry y="26" width="160" height="54" as="geometry" />
        </mxCell>
        <mxCell id="kWh5ohczA3Y1a8C0f1TA-3" value="" style="line;strokeWidth=1;fillColor=none;align=left;verticalAlign=middle;spacingTop=-1;spacingLeft=3;spacingRight=3;rotatable=0;labelPosition=right;points=[];portConstraint=eastwest;strokeColor=inherit;" vertex="1" parent="kWh5ohczA3Y1a8C0f1TA-1">
          <mxGeometry y="80" width="160" height="8" as="geometry" />
        </mxCell>
        <mxCell id="kWh5ohczA3Y1a8C0f1TA-4" value="+upload():void&lt;div&gt;+download():void&lt;/div&gt;" style="text;strokeColor=none;fillColor=none;align=left;verticalAlign=top;spacingLeft=4;spacingRight=4;overflow=hidden;rotatable=0;points=[[0,0.5],[1,0.5]];portConstraint=eastwest;whiteSpace=wrap;html=1;" vertex="1" parent="kWh5ohczA3Y1a8C0f1TA-1">
          <mxGeometry y="88" width="160" height="42" as="geometry" />
        </mxCell>
        <mxCell id="kWh5ohczA3Y1a8C0f1TA-5" value="Student" style="swimlane;fontStyle=1;align=center;verticalAlign=top;childLayout=stackLayout;horizontal=1;startSize=26;horizontalStack=0;resizeParent=1;resizeParentMax=0;resizeLast=0;collapsible=1;marginBottom=0;whiteSpace=wrap;html=1;" vertex="1" parent="1">
          <mxGeometry x="160" y="60" width="180" height="130" as="geometry" />
        </mxCell>
        <mxCell id="kWh5ohczA3Y1a8C0f1TA-6" value="+studentID:String&lt;div&gt;+name:String&lt;/div&gt;&lt;div&gt;+email:String&lt;/div&gt;" style="text;strokeColor=none;fillColor=none;align=left;verticalAlign=top;spacingLeft=4;spacingRight=4;overflow=hidden;rotatable=0;points=[[0,0.5],[1,0.5]];portConstraint=eastwest;whiteSpace=wrap;html=1;" vertex="1" parent="kWh5ohczA3Y1a8C0f1TA-5">
          <mxGeometry y="26" width="180" height="54" as="geometry" />
        </mxCell>
        <mxCell id="kWh5ohczA3Y1a8C0f1TA-7" value="" style="line;strokeWidth=1;fillColor=none;align=left;verticalAlign=middle;spacingTop=-1;spacingLeft=3;spacingRight=3;rotatable=0;labelPosition=right;points=[];portConstraint=eastwest;strokeColor=inherit;" vertex="1" parent="kWh5ohczA3Y1a8C0f1TA-5">
          <mxGeometry y="80" width="180" height="8" as="geometry" />
        </mxCell>
        <mxCell id="kWh5ohczA3Y1a8C0f1TA-8" value="+viewDocuments():void&lt;div&gt;+downloadDocument():void&lt;/div&gt;" style="text;strokeColor=none;fillColor=none;align=left;verticalAlign=top;spacingLeft=4;spacingRight=4;overflow=hidden;rotatable=0;points=[[0,0.5],[1,0.5]];portConstraint=eastwest;whiteSpace=wrap;html=1;" vertex="1" parent="kWh5ohczA3Y1a8C0f1TA-5">
          <mxGeometry y="88" width="180" height="42" as="geometry" />
        </mxCell>
        <mxCell id="kWh5ohczA3Y1a8C0f1TA-9" value="Teacher" style="swimlane;fontStyle=1;align=center;verticalAlign=top;childLayout=stackLayout;horizontal=1;startSize=26;horizontalStack=0;resizeParent=1;resizeParentMax=0;resizeLast=0;collapsible=1;marginBottom=0;whiteSpace=wrap;html=1;" vertex="1" parent="1">
          <mxGeometry x="490" y="70" width="160" height="120" as="geometry" />
        </mxCell>
        <mxCell id="kWh5ohczA3Y1a8C0f1TA-10" value="+teacherID:String&lt;div&gt;+name:String&lt;/div&gt;&lt;div&gt;&lt;br&gt;&lt;/div&gt;" style="text;strokeColor=none;fillColor=none;align=left;verticalAlign=top;spacingLeft=4;spacingRight=4;overflow=hidden;rotatable=0;points=[[0,0.5],[1,0.5]];portConstraint=eastwest;whiteSpace=wrap;html=1;" vertex="1" parent="kWh5ohczA3Y1a8C0f1TA-9">
          <mxGeometry y="26" width="160" height="44" as="geometry" />
        </mxCell>
        <mxCell id="kWh5ohczA3Y1a8C0f1TA-11" value="" style="line;strokeWidth=1;fillColor=none;align=left;verticalAlign=middle;spacingTop=-1;spacingLeft=3;spacingRight=3;rotatable=0;labelPosition=right;points=[];portConstraint=eastwest;strokeColor=inherit;" vertex="1" parent="kWh5ohczA3Y1a8C0f1TA-9">
          <mxGeometry y="70" width="160" height="8" as="geometry" />
        </mxCell>
        <mxCell id="kWh5ohczA3Y1a8C0f1TA-12" value="+uploadDocument():void&lt;div&gt;+manageMetadata():void&lt;/div&gt;" style="text;strokeColor=none;fillColor=none;align=left;verticalAlign=top;spacingLeft=4;spacingRight=4;overflow=hidden;rotatable=0;points=[[0,0.5],[1,0.5]];portConstraint=eastwest;whiteSpace=wrap;html=1;" vertex="1" parent="kWh5ohczA3Y1a8C0f1TA-9">
          <mxGeometry y="78" width="160" height="42" as="geometry" />
        </mxCell>
        <mxCell id="kWh5ohczA3Y1a8C0f1TA-13" value="Admin" style="swimlane;fontStyle=1;align=center;verticalAlign=top;childLayout=stackLayout;horizontal=1;startSize=26;horizontalStack=0;resizeParent=1;resizeParentMax=0;resizeLast=0;collapsible=1;marginBottom=0;whiteSpace=wrap;html=1;" vertex="1" parent="1">
          <mxGeometry x="810" y="70" width="160" height="120" as="geometry" />
        </mxCell>
        <mxCell id="kWh5ohczA3Y1a8C0f1TA-14" value="+adminID:String&lt;div&gt;+name:String&lt;/div&gt;" style="text;strokeColor=none;fillColor=none;align=left;verticalAlign=top;spacingLeft=4;spacingRight=4;overflow=hidden;rotatable=0;points=[[0,0.5],[1,0.5]];portConstraint=eastwest;whiteSpace=wrap;html=1;" vertex="1" parent="kWh5ohczA3Y1a8C0f1TA-13">
          <mxGeometry y="26" width="160" height="44" as="geometry" />
        </mxCell>
        <mxCell id="kWh5ohczA3Y1a8C0f1TA-15" value="" style="line;strokeWidth=1;fillColor=none;align=left;verticalAlign=middle;spacingTop=-1;spacingLeft=3;spacingRight=3;rotatable=0;labelPosition=right;points=[];portConstraint=eastwest;strokeColor=inherit;" vertex="1" parent="kWh5ohczA3Y1a8C0f1TA-13">
          <mxGeometry y="70" width="160" height="8" as="geometry" />
        </mxCell>
        <mxCell id="kWh5ohczA3Y1a8C0f1TA-16" value="+configurePermissions():void&lt;div&gt;+manageStorage():void&lt;/div&gt;" style="text;strokeColor=none;fillColor=none;align=left;verticalAlign=top;spacingLeft=4;spacingRight=4;overflow=hidden;rotatable=0;points=[[0,0.5],[1,0.5]];portConstraint=eastwest;whiteSpace=wrap;html=1;" vertex="1" parent="kWh5ohczA3Y1a8C0f1TA-13">
          <mxGeometry y="78" width="160" height="42" as="geometry" />
        </mxCell>
        <mxCell id="kWh5ohczA3Y1a8C0f1TA-17" value="Metadata" style="swimlane;fontStyle=1;align=center;verticalAlign=top;childLayout=stackLayout;horizontal=1;startSize=26;horizontalStack=0;resizeParent=1;resizeParentMax=0;resizeLast=0;collapsible=1;marginBottom=0;whiteSpace=wrap;html=1;" vertex="1" parent="1">
          <mxGeometry x="330" y="520" width="160" height="78" as="geometry" />
        </mxCell>
        <mxCell id="kWh5ohczA3Y1a8C0f1TA-18" value="+tags:List&amp;lt;String&amp;gt;&lt;div&gt;+categories:List&amp;lt;String&amp;gt;&lt;br&gt;&lt;/div&gt;" style="text;strokeColor=none;fillColor=none;align=left;verticalAlign=top;spacingLeft=4;spacingRight=4;overflow=hidden;rotatable=0;points=[[0,0.5],[1,0.5]];portConstraint=eastwest;whiteSpace=wrap;html=1;" vertex="1" parent="kWh5ohczA3Y1a8C0f1TA-17">
          <mxGeometry y="26" width="160" height="44" as="geometry" />
        </mxCell>
        <mxCell id="kWh5ohczA3Y1a8C0f1TA-19" value="" style="line;strokeWidth=1;fillColor=none;align=left;verticalAlign=middle;spacingTop=-1;spacingLeft=3;spacingRight=3;rotatable=0;labelPosition=right;points=[];portConstraint=eastwest;strokeColor=inherit;" vertex="1" parent="kWh5ohczA3Y1a8C0f1TA-17">
          <mxGeometry y="70" width="160" height="8" as="geometry" />
        </mxCell>
        <mxCell id="kWh5ohczA3Y1a8C0f1TA-21" value="Storage" style="swimlane;fontStyle=1;align=center;verticalAlign=top;childLayout=stackLayout;horizontal=1;startSize=26;horizontalStack=0;resizeParent=1;resizeParentMax=0;resizeLast=0;collapsible=1;marginBottom=0;whiteSpace=wrap;html=1;" vertex="1" parent="1">
          <mxGeometry x="710" y="520" width="160" height="120" as="geometry" />
        </mxCell>
        <mxCell id="kWh5ohczA3Y1a8C0f1TA-22" value="+storageID:String&lt;div&gt;+capacity:Float&lt;/div&gt;" style="text;strokeColor=none;fillColor=none;align=left;verticalAlign=top;spacingLeft=4;spacingRight=4;overflow=hidden;rotatable=0;points=[[0,0.5],[1,0.5]];portConstraint=eastwest;whiteSpace=wrap;html=1;" vertex="1" parent="kWh5ohczA3Y1a8C0f1TA-21">
          <mxGeometry y="26" width="160" height="44" as="geometry" />
        </mxCell>
        <mxCell id="kWh5ohczA3Y1a8C0f1TA-23" value="" style="line;strokeWidth=1;fillColor=none;align=left;verticalAlign=middle;spacingTop=-1;spacingLeft=3;spacingRight=3;rotatable=0;labelPosition=right;points=[];portConstraint=eastwest;strokeColor=inherit;" vertex="1" parent="kWh5ohczA3Y1a8C0f1TA-21">
          <mxGeometry y="70" width="160" height="8" as="geometry" />
        </mxCell>
        <mxCell id="kWh5ohczA3Y1a8C0f1TA-24" value="+addDocument():void&lt;div&gt;+removeDocument():void&lt;/div&gt;" style="text;strokeColor=none;fillColor=none;align=left;verticalAlign=top;spacingLeft=4;spacingRight=4;overflow=hidden;rotatable=0;points=[[0,0.5],[1,0.5]];portConstraint=eastwest;whiteSpace=wrap;html=1;" vertex="1" parent="kWh5ohczA3Y1a8C0f1TA-21">
          <mxGeometry y="78" width="160" height="42" as="geometry" />
        </mxCell>
        <mxCell id="kWh5ohczA3Y1a8C0f1TA-30" value="" style="endArrow=none;html=1;rounded=0;exitX=-0.018;exitY=0.922;exitDx=0;exitDy=0;exitPerimeter=0;" edge="1" parent="1" source="kWh5ohczA3Y1a8C0f1TA-2">
          <mxGeometry width="50" height="50" relative="1" as="geometry">
            <mxPoint x="200" y="240" as="sourcePoint" />
            <mxPoint x="250" y="190" as="targetPoint" />
            <Array as="points">
              <mxPoint x="250" y="356" />
            </Array>
          </mxGeometry>
        </mxCell>
        <mxCell id="kWh5ohczA3Y1a8C0f1TA-31" value="" style="endArrow=none;html=1;rounded=0;exitX=0.188;exitY=0;exitDx=0;exitDy=0;exitPerimeter=0;" edge="1" parent="1" source="kWh5ohczA3Y1a8C0f1TA-1">
          <mxGeometry width="50" height="50" relative="1" as="geometry">
            <mxPoint x="530" y="260" as="sourcePoint" />
            <mxPoint x="570" y="190" as="targetPoint" />
          </mxGeometry>
        </mxCell>
        <mxCell id="kWh5ohczA3Y1a8C0f1TA-32" value="" style="endArrow=none;html=1;rounded=0;" edge="1" parent="1">
          <mxGeometry width="50" height="50" relative="1" as="geometry">
            <mxPoint x="704" y="346" as="sourcePoint" />
            <mxPoint x="920" y="190" as="targetPoint" />
            <Array as="points">
              <mxPoint x="920" y="346" />
            </Array>
          </mxGeometry>
        </mxCell>
        <mxCell id="kWh5ohczA3Y1a8C0f1TA-35" value="" style="endArrow=none;html=1;rounded=0;entryX=1.013;entryY=-0.027;entryDx=0;entryDy=0;entryPerimeter=0;" edge="1" parent="1" target="kWh5ohczA3Y1a8C0f1TA-4">
          <mxGeometry width="50" height="50" relative="1" as="geometry">
            <mxPoint x="790" y="520" as="sourcePoint" />
            <mxPoint x="840" y="470" as="targetPoint" />
            <Array as="points">
              <mxPoint x="790" y="367" />
            </Array>
          </mxGeometry>
        </mxCell>
        <mxCell id="kWh5ohczA3Y1a8C0f1TA-36" value="access" style="text;html=1;align=center;verticalAlign=middle;resizable=0;points=[];autosize=1;strokeColor=none;fillColor=none;" vertex="1" parent="1">
          <mxGeometry x="270" y="328" width="60" height="30" as="geometry" />
        </mxCell>
        <mxCell id="kWh5ohczA3Y1a8C0f1TA-37" value="1" style="text;html=1;align=center;verticalAlign=middle;resizable=0;points=[];autosize=1;strokeColor=none;fillColor=none;" vertex="1" parent="1">
          <mxGeometry x="245" y="208" width="30" height="30" as="geometry" />
        </mxCell>
        <mxCell id="kWh5ohczA3Y1a8C0f1TA-38" value="0..*" style="text;html=1;align=center;verticalAlign=middle;resizable=0;points=[];autosize=1;strokeColor=none;fillColor=none;" vertex="1" parent="1">
          <mxGeometry x="500" y="328" width="40" height="30" as="geometry" />
        </mxCell>
        <mxCell id="kWh5ohczA3Y1a8C0f1TA-39" value="uploads" style="text;html=1;align=center;verticalAlign=middle;resizable=0;points=[];autosize=1;strokeColor=none;fillColor=none;" vertex="1" parent="1">
          <mxGeometry x="560" y="218" width="70" height="30" as="geometry" />
        </mxCell>
        <mxCell id="kWh5ohczA3Y1a8C0f1TA-40" value="1" style="text;html=1;align=center;verticalAlign=middle;resizable=0;points=[];autosize=1;strokeColor=none;fillColor=none;" vertex="1" parent="1">
          <mxGeometry x="560" y="188" width="30" height="30" as="geometry" />
        </mxCell>
        <mxCell id="kWh5ohczA3Y1a8C0f1TA-41" value="0..*" style="text;html=1;align=center;verticalAlign=middle;resizable=0;points=[];autosize=1;strokeColor=none;fillColor=none;" vertex="1" parent="1">
          <mxGeometry x="570" y="250" width="40" height="30" as="geometry" />
        </mxCell>
        <mxCell id="kWh5ohczA3Y1a8C0f1TA-42" value="Manages" style="text;html=1;align=center;verticalAlign=middle;resizable=0;points=[];autosize=1;strokeColor=none;fillColor=none;" vertex="1" parent="1">
          <mxGeometry x="795" y="318" width="70" height="30" as="geometry" />
        </mxCell>
        <mxCell id="kWh5ohczA3Y1a8C0f1TA-43" value="1" style="text;html=1;align=center;verticalAlign=middle;resizable=0;points=[];autosize=1;strokeColor=none;fillColor=none;" vertex="1" parent="1">
          <mxGeometry x="910" y="188" width="30" height="30" as="geometry" />
        </mxCell>
        <mxCell id="kWh5ohczA3Y1a8C0f1TA-44" value="0..*" style="text;html=1;align=center;verticalAlign=middle;resizable=0;points=[];autosize=1;strokeColor=none;fillColor=none;" vertex="1" parent="1">
          <mxGeometry x="700" y="318" width="40" height="30" as="geometry" />
        </mxCell>
        <mxCell id="kWh5ohczA3Y1a8C0f1TA-45" value="stored in" style="text;html=1;align=center;verticalAlign=middle;resizable=0;points=[];autosize=1;strokeColor=none;fillColor=none;" vertex="1" parent="1">
          <mxGeometry x="785" y="448" width="70" height="30" as="geometry" />
        </mxCell>
        <mxCell id="kWh5ohczA3Y1a8C0f1TA-46" value="1" style="text;html=1;align=center;verticalAlign=middle;resizable=0;points=[];autosize=1;strokeColor=none;fillColor=none;" vertex="1" parent="1">
          <mxGeometry x="700" y="358" width="30" height="30" as="geometry" />
        </mxCell>
        <mxCell id="kWh5ohczA3Y1a8C0f1TA-47" value="1" style="text;html=1;align=center;verticalAlign=middle;resizable=0;points=[];autosize=1;strokeColor=none;fillColor=none;" vertex="1" parent="1">
          <mxGeometry x="765" y="488" width="30" height="30" as="geometry" />
        </mxCell>
        <mxCell id="kWh5ohczA3Y1a8C0f1TA-48" value="" style="endArrow=diamondThin;endFill=0;endSize=24;html=1;rounded=0;exitX=0.25;exitY=0;exitDx=0;exitDy=0;entryX=0;entryY=0.5;entryDx=0;entryDy=0;" edge="1" parent="1" source="kWh5ohczA3Y1a8C0f1TA-17" target="kWh5ohczA3Y1a8C0f1TA-4">
          <mxGeometry width="160" relative="1" as="geometry">
            <mxPoint x="370" y="476.46" as="sourcePoint" />
            <mxPoint x="530" y="476.46" as="targetPoint" />
            <Array as="points">
              <mxPoint x="370" y="390" />
            </Array>
          </mxGeometry>
        </mxCell>
        <mxCell id="kWh5ohczA3Y1a8C0f1TA-49" value="1" style="text;html=1;align=center;verticalAlign=middle;resizable=0;points=[];autosize=1;strokeColor=none;fillColor=none;" vertex="1" parent="1">
          <mxGeometry x="365" y="488" width="30" height="30" as="geometry" />
        </mxCell>
        <mxCell id="kWh5ohczA3Y1a8C0f1TA-50" value="1" style="text;html=1;align=center;verticalAlign=middle;resizable=0;points=[];autosize=1;strokeColor=none;fillColor=none;" vertex="1" parent="1">
          <mxGeometry x="485" y="388" width="30" height="30" as="geometry" />
        </mxCell>
        <mxCell id="kWh5ohczA3Y1a8C0f1TA-51" value="contains" style="text;html=1;align=center;verticalAlign=middle;resizable=0;points=[];autosize=1;strokeColor=none;fillColor=none;" vertex="1" parent="1">
          <mxGeometry x="365" y="438" width="70" height="30" as="geometry" />
        </mxCell>
      </root>
    </mxGraphModel>
  </diagram>
</mxfile>
